<?xml version="1.0" encoding="UTF-8" standalone="no"?><!DOCTYPE svg PUBLIC "-//W3C//DTD SVG 1.1//EN" "http://www.w3.org/Graphics/SVG/1.1/DTD/svg11.dtd"><svg width="100%" height="100%" viewBox="0 0 868 400" version="1.1" xmlns="http://www.w3.org/2000/svg" xmlns:xlink="http://www.w3.org/1999/xlink" xml:space="preserve" xmlns:serif="http://www.serif.com/" style="fill-rule:evenodd;clip-rule:evenodd;stroke-linejoin:round;stroke-miterlimit:1.41421;"><path id="elements" d="M786.419,236.959l80.738,0l0,80.738l-80.738,0l0,80.739l-80.739,0l0,-80.739l-80.738,0l0,-26.55l-27.345,0l0,29.956l-29.956,0l0,-29.956l-29.956,0l0,-29.956l29.956,0l0,-29.956l29.956,0l0,29.956l27.345,0l0,-24.232l80.738,0l0,-80.738l80.739,0l0,80.738Zm-570.184,77.104l-21.428,0l0,-21.428l-21.429,0l0,-21.429l21.429,0l0,-21.428l21.428,0l0,21.428l21.428,0l0,21.429l-21.428,0l0,21.428Zm116.558,-0.815l-29.621,0l0,-29.621l-29.621,0l0,-29.62l29.621,0l0,-29.621l29.621,0l0,29.621l29.62,0l0,29.62l-29.62,0l0,29.621Zm92.367,-42.101l19.183,0l0,19.183l-19.183,0l0,19.184l-19.184,0l0,-19.184l-19.184,0l0,-19.183l19.184,0l0,-19.184l19.184,0l0,19.184Zm-347.535,10.542l12.472,0l0,12.473l-12.472,0l0,12.472l-12.473,0l0,-12.472l-12.472,0l0,-12.473l12.472,0l0,-12.472l12.473,0l0,12.472Zm62.882,-6.453l12.473,0l0,12.472l-12.473,0l0,12.472l-12.472,0l0,-12.472l-12.472,0l0,-12.472l12.472,0l0,-12.473l12.472,0l0,12.473Zm-136.058,-1.43l2.225,0l0,2.224l-2.225,0l0,2.225l-2.224,0l0,-2.225l-2.225,0l0,-2.224l2.225,0l0,-2.225l2.224,0l0,2.225Zm101.655,-14.375l7.388,0l0,7.388l-7.388,0l0,7.388l-7.388,0l0,-7.388l-7.388,0l0,-7.388l7.388,0l0,-7.387l7.388,0l0,7.387Zm271.33,4.972l3.971,0l0,3.971l-3.971,0l0,3.972l-3.972,0l0,-3.972l-3.971,0l0,-3.971l3.971,0l0,-3.971l3.972,0l0,3.971Zm-328.723,-5.743l3.971,0l0,3.971l-3.971,0l0,3.972l-3.971,0l0,-3.972l-3.972,0l0,-3.971l3.972,0l0,-3.971l3.971,0l0,3.971Zm417.417,-10.718l6.131,0l0,6.13l-6.131,0l0,6.131l-6.13,0l0,-6.131l-6.131,0l0,-6.13l6.131,0l0,-6.13l6.13,0l0,6.13Zm61.318,-61.384l36.582,0l0,36.582l-36.582,0l0,36.581l-36.581,0l0,-36.581l-36.582,0l0,-36.582l36.582,0l0,-36.581l36.581,0l0,36.581Zm29.545,60.056l3.971,0l0,3.971l-3.971,0l0,3.971l-3.971,0l0,-3.971l-3.972,0l0,-3.971l3.972,0l0,-3.971l3.971,0l0,3.971Zm-319.821,-1.899l3.971,0l0,3.972l-3.971,0l0,3.971l-3.971,0l0,-3.971l-3.972,0l0,-3.972l3.972,0l0,-3.971l3.971,0l0,3.971Zm-73.693,-15.164l3.972,0l0,3.972l-3.972,0l0,3.971l-3.971,0l0,-3.971l-3.971,0l0,-3.972l3.971,0l0,-3.971l3.971,0l0,3.971Zm193.503,-8.306l6.13,0l0,6.13l-6.13,0l0,6.131l-6.131,0l0,-6.131l-6.13,0l0,-6.13l6.13,0l0,-6.131l6.131,0l0,6.131Zm468.549,4.98l2.224,0l0,2.224l-2.224,0l0,2.225l-2.225,0l0,-2.225l-2.224,0l0,-2.224l2.224,0l0,-2.225l2.225,0l0,2.225Zm-408.395,-22.04l10.024,0l0,10.024l-10.024,0l0,10.024l-10.024,0l0,-10.024l-10.024,0l0,-10.024l10.024,0l0,-10.024l10.024,0l0,10.024Zm427.545,19.847l-10.647,0l0,-10.646l-10.646,0l0,-10.647l10.646,0l0,-10.646l10.647,0l0,10.646l10.646,0l0,10.647l-10.646,0l0,10.646Zm-192.74,-62.054l30.62,0l0,30.621l-30.62,0l0,30.621l-30.621,0l0,-30.621l-30.621,0l0,-30.621l30.621,0l0,-30.621l30.621,0l0,30.621Zm166.742,-5.03l12.997,0l0,12.998l-12.997,0l0,12.998l-12.998,0l0,-12.998l-12.998,0l0,-12.998l12.998,0l0,-12.997l12.998,0l0,12.997Zm-363.637,-19.894l12.998,0l0,12.998l-12.998,0l0,12.998l-12.998,0l0,-12.998l-12.998,0l0,-12.998l12.998,0l0,-12.998l12.998,0l0,12.998Zm83.407,-2.825l3.972,0l0,3.971l-3.972,0l0,3.972l-3.971,0l0,-3.972l-3.971,0l0,-3.971l3.971,0l0,-3.971l3.971,0l0,3.971Zm187.297,-23.688l14.408,0l0,14.409l-14.408,0l0,14.408l-14.408,0l0,-14.408l-14.408,0l0,-14.409l14.408,0l0,-14.408l14.408,0l0,14.408Zm-245.525,-26.417l3.971,0l0,3.971l-3.971,0l0,3.971l-3.971,0l0,-3.971l-3.972,0l0,-3.971l3.972,0l0,-3.972l3.971,0l0,3.972Zm292.453,-25.768l3.971,0l0,3.971l-3.971,0l0,3.972l-3.971,0l0,-3.972l-3.972,0l0,-3.971l3.972,0l0,-3.971l3.971,0l0,3.971Zm-256.147,-56.131l2.224,0l0,2.224l-2.224,0l0,2.225l-2.225,0l0,-2.225l-2.224,0l0,-2.224l2.224,0l0,-2.225l2.225,0l0,2.225Z" style="fill:#408385;"/></svg>